<svg xmlns="http://www.w3.org/2000/svg" width="274.195" height="225.48" viewBox="0 0 274.195 225.48">
  <g id="Group_4" data-name="Group 4" transform="translate(-36.085 0)">
    <path id="Path_77" data-name="Path 77" d="M231.631,126.993a6.392,6.392,0,0,0,.695.038,7.05,7.05,0,0,0,0-14.079,6.389,6.389,0,0,0-.695.038,7.09,7.09,0,0,1,0,14Z" transform="translate(-195.546 -112.953)" fill="#2f2e41"/>
    <path id="Path_83" data-name="Path 83" d="M320.385,624.742a1.415,1.415,0,0,0-1.374,1.45v49.467a1.415,1.415,0,0,0,1.374,1.45H480.167a1.415,1.415,0,0,0,1.374-1.45V626.192a1.415,1.415,0,0,0-1.374-1.45Z" transform="translate(-254.928 -451.63)" fill="#e6e6e6"/>
    <path id="Path_84" data-name="Path 84" d="M329.757,680.586H485.4v-45.1H329.757Z" transform="translate(-262.23 -458.74)" fill="#fff"/>
    <path id="Path_85" data-name="Path 85" d="M749.37,741.157a2.406,2.406,0,0,0,0,4.8h9.1a2.406,2.406,0,0,0,0-4.8Z" transform="translate(-545.846 -528.667)" fill="#d87034"/>
    <rect id="Rectangle_7" data-name="Rectangle 7" width="105.085" height="0.632" transform="translate(109.817 207.83)" fill="#e6e6e6"/>
    <ellipse id="Ellipse_14" data-name="Ellipse 14" cx="13.255" cy="13.993" rx="13.255" ry="13.993" transform="translate(74.596 185.303)" fill="#f9a032"/>
    <path id="Path_86" data-name="Path 86" d="M348.936,558.5l-.332-.526,10.92-7.685,7.488,3.794,10.771-7.264,21.426,9.648,17.062-8.848,16.568,7.091,20.818-19.465.4.473-21.1,19.725-16.664-7.132-17.068,8.851-21.387-9.631L367.054,554.8l-7.481-3.791Z" transform="translate(-238.953 -354.196)" fill="#3f3d56"/>
    <path id="Path_87" data-name="Path 87" d="M463.69,742.134a2.057,2.057,0,0,0,0,4.109h20.358a2.057,2.057,0,0,0,0-4.109Z" transform="translate(-351.927 -529.314)" fill="#e6e6e6"/>
    <path id="Path_88" data-name="Path 88" d="M383.064,683.645h2.071l-4.31,4.5a3.874,3.874,0,0,1-5.649,0l-4.309-4.5h2.071l3.274,3.42a2.454,2.454,0,0,0,3.578,0Zm-10.152,12.52h-2.071l4.336-4.53a3.874,3.874,0,0,1,5.649,0l4.336,4.53h-2.071l-3.3-3.448a2.454,2.454,0,0,0-3.578,0Z" transform="translate(-290.151 -490.609)" fill="#fff"/>
    <path id="Path_89" data-name="Path 89" d="M385.321,156.307a1.415,1.415,0,0,0-1.374,1.45v49.467a1.415,1.415,0,0,0,1.374,1.45H545.1a1.415,1.415,0,0,0,1.374-1.45V157.757a1.415,1.415,0,0,0-1.374-1.45Z" transform="translate(-299.057 -141.642)" fill="#e6e6e6"/>
    <path id="Path_90" data-name="Path 90" d="M394.692,212.151H550.335v-45.1H394.692Z" transform="translate(-306.359 -148.753)" fill="#fff"/>
    <path id="Path_91" data-name="Path 91" d="M814.3,272.722a2.406,2.406,0,0,0,0,4.8h9.1a2.406,2.406,0,0,0,0-4.8Z" transform="translate(-589.975 -218.68)" fill="#d87034"/>
    <rect id="Rectangle_8" data-name="Rectangle 8" width="105.085" height="0.632" transform="translate(130.623 49.382)" fill="#e6e6e6"/>
    <ellipse id="Ellipse_15" data-name="Ellipse 15" cx="13.255" cy="13.993" rx="13.255" ry="13.993" transform="translate(95.402 26.855)" fill="#faa232"/>
    <path id="Path_92" data-name="Path 92" d="M413.871,90.06l-.332-.526,10.92-7.685,7.488,3.794,10.771-7.264.145.065,21.28,9.583,17.062-8.848,16.568,7.091L518.592,66.8l.4.473L497.893,87l-16.664-7.132-17.068,8.851-21.387-9.631-10.785,7.274-7.481-3.791Z" transform="translate(-283.082 -44.208)" fill="#3f3d56"/>
    <path id="Path_93" data-name="Path 93" d="M528.625,273.7a2.057,2.057,0,0,0,0,4.109h20.358a2.057,2.057,0,0,0,0-4.109Z" transform="translate(-396.056 -219.327)" fill="#e6e6e6"/>
    <path id="Path_94" data-name="Path 94" d="M449.54,215.781c.248-1.751-1.015-2.692-2.742-3.32l.56-2.372-1.368-.36-.545,2.31c-.359-.095-.728-.184-1.1-.272l.549-2.325-1.367-.36-.561,2.371c-.3-.072-.59-.142-.873-.217l0-.007-1.886-.5-.364,1.542s1.015.246.993.261a.759.759,0,0,1,.637.84l-.638,2.7a1.093,1.093,0,0,1,.142.048l-.144-.038-.895,3.786a.519.519,0,0,1-.246.309.474.474,0,0,1-.381.034c.014.021-.994-.262-.994-.262l-.679,1.653,1.78.468c.331.088.656.179.975.266l-.566,2.4,1.366.36.561-2.374c.373.107.735.206,1.09.3l-.559,2.363,1.368.36.566-2.395c2.332.466,4.087.278,4.824-1.948a2.586,2.586,0,0,0-1.256-3.5,2.264,2.264,0,0,0,1.746-2.121Zm-3.126,4.626c-.423,1.793-3.282.824-4.21.581l.751-3.179c.927.244,3.9.728,3.459,2.6Zm.423-4.652c-.386,1.631-2.766.8-3.538.6l.681-2.883c.773.2,3.259.582,2.857,2.284Z" transform="translate(-335.549 -176.566)" fill="#fff"/>
    <path id="Path_95" data-name="Path 95" d="M581.507,390.524a1.415,1.415,0,0,0-1.374,1.45v49.467a1.415,1.415,0,0,0,1.374,1.45H741.289a1.415,1.415,0,0,0,1.374-1.45V391.975a1.415,1.415,0,0,0-1.374-1.45Z" transform="translate(-432.382 -296.636)" fill="#e6e6e6"/>
    <path id="Path_96" data-name="Path 96" d="M590.878,446.368H746.522v-45.1H590.878Z" transform="translate(-439.685 -303.747)" fill="#fff"/>
    <path id="Path_97" data-name="Path 97" d="M1010.492,506.94a2.406,2.406,0,0,0,0,4.8h9.1a2.406,2.406,0,0,0,0-4.8Z" transform="translate(-723.3 -373.674)" fill="#d87034"/>
    <rect id="Rectangle_9" data-name="Rectangle 9" width="105.085" height="0.632" transform="translate(193.485 128.606)" fill="#e6e6e6"/>
    <ellipse id="Ellipse_16" data-name="Ellipse 16" cx="13.255" cy="13.993" rx="13.255" ry="13.993" transform="translate(158.263 106.079)" fill="#f99f32"/>
    <path id="Path_98" data-name="Path 98" d="M610.057,324.278l-.332-.526,10.92-7.685,7.488,3.794L638.9,312.6l.146.065,21.28,9.583,17.062-8.848,16.568,7.09,20.818-19.465.4.474-21.1,19.725-16.664-7.132-17.068,8.851L638.96,313.31l-10.786,7.274-7.481-3.791Z" transform="translate(-416.406 -199.202)" fill="#3f3d56"/>
    <path id="Path_99" data-name="Path 99" d="M724.812,507.917a2.057,2.057,0,0,0,0,4.109H745.17a2.057,2.057,0,0,0,0-4.109Z" transform="translate(-529.381 -374.32)" fill="#e6e6e6"/>
    <path id="Path_100" data-name="Path 100" d="M530.31,366.64l5.366-7.978-5.366,3.345h0l-5.363-3.345,5.362,7.978h0Z" transform="translate(-358.793 -237.345)" fill="#fff"/>
    <path id="Path_101" data-name="Path 101" d="M530.31,340.457h0l5.363-3.346-5.363-9.393h0l-5.362,9.393Z" transform="translate(-358.793 -216.867)" fill="#fff"/>
  </g>
</svg>
