<svg xmlns="http://www.w3.org/2000/svg" width="222" height="202.339" viewBox="0 0 222 202.339">
  <g id="Group_3" data-name="Group 3" transform="translate(-0.001 -0.001)">
    <rect id="Rectangle_5" data-name="Rectangle 5" width="193.744" height="17.639" transform="translate(5.305 72.765) rotate(-16.244)" fill="#f99d32" opacity="0.441"/>
    <path id="Path_50" data-name="Path 50" d="M343.6,341.874,316.183,247.84a2.738,2.738,0,0,1,1.864-3.395L499.554,191.6a2.743,2.743,0,0,1,3.4,1.863l24.29,83.308-.752.219L502.2,193.681a1.961,1.961,0,0,0-2.427-1.331L318.266,245.2a1.956,1.956,0,0,0-1.332,2.425l27.417,94.035Z" transform="translate(-316.071 -191.488)" fill="#faa531"/>
    <path id="Path_51" data-name="Path 51" d="M741.826,370.89a2.549,2.549,0,0,1-2.444-1.832l-4.6-15.772a2.545,2.545,0,0,1,1.731-3.152l15.783-4.6a2.547,2.547,0,0,1,3.154,1.73l4.6,15.772a2.545,2.545,0,0,1-1.731,3.152l-15.783,4.6a2.537,2.537,0,0,1-.711.1Z" transform="translate(-570.829 -285.221)" fill="#f58334"/>
    <path id="Path_52" data-name="Path 52" d="M371,331.033a4.58,4.58,0,0,0-.168-.477,4.7,4.7,0,0,0-8.967,2.609,4.446,4.446,0,0,0,.113.493,4.7,4.7,0,0,0,4.513,3.379,4.6,4.6,0,0,0,1.311-.188,4.7,4.7,0,0,0,3.2-5.816Zm-3.417,5.065a3.92,3.92,0,0,1-4.854-2.66,4.459,4.459,0,0,1-.11-.493,3.913,3.913,0,0,1,7.453-2.167,3.268,3.268,0,0,1,.176.473,3.913,3.913,0,0,1-2.666,4.846Z" transform="translate(-343.895 -274.391)" fill="#faa231"/>
    <path id="Path_53" data-name="Path 53" d="M351.425,337.521a4.3,4.3,0,0,1,1.647-4.716,4.3,4.3,0,1,0,2.277,7.81A4.306,4.306,0,0,1,351.425,337.521Z" transform="translate(-335.841 -277.526)" fill="#f9a040"/>
    <path id="Path_54" data-name="Path 54" d="M617.458,391.737a2.365,2.365,0,0,0-2.916-1.643l-25.986,7.263-2.8.782h17.575l2.8-.782,9.688-2.707A2.366,2.366,0,0,0,617.458,391.737Z" transform="translate(-480.197 -312.358)" fill="#ccc"/>
    <path id="Path_55" data-name="Path 55" d="M551.93,377.872a2.366,2.366,0,0,0-2.916-1.639l-38.993,10.9a2.374,2.374,0,0,0-1.71,2.57h10.095l2.8-.782,29.082-8.128a2.368,2.368,0,0,0,1.64-2.918Z" transform="translate(-433.053 -303.918)" fill="#ccc"/>
    <path id="Path_56" data-name="Path 56" d="M578.036,408.8H388.981a2.742,2.742,0,0,0-2.74,2.738V523.4a2.742,2.742,0,0,0,2.74,2.738H578.036a2.742,2.742,0,0,0,2.74-2.738V411.536a2.742,2.742,0,0,0-2.74-2.738Zm1.957,114.6a1.957,1.957,0,0,1-1.957,1.956H388.981a1.957,1.957,0,0,1-1.957-1.956V411.536a1.957,1.957,0,0,1,1.957-1.956H578.036a1.957,1.957,0,0,1,1.957,1.956Z" transform="translate(-358.774 -323.799)" fill="#faa531"/>
    <path id="Path_57" data-name="Path 57" d="M432.934,433.187a4.694,4.694,0,1,1,4.7-4.694A4.7,4.7,0,0,1,432.934,433.187Zm0-8.605a3.911,3.911,0,1,0,3.914,3.911A3.913,3.913,0,0,0,432.934,424.582Z" transform="translate(-384.333 -332.933)" fill="#f99f32"/>
    <path id="Path_58" data-name="Path 58" d="M417.218,429.1a4.3,4.3,0,0,1,2.9-4.067,4.3,4.3,0,1,0,0,8.134,4.3,4.3,0,0,1-2.9-4.067Z" transform="translate(-375.917 -333.542)" fill="#f79233"/>
    <path id="Path_59" data-name="Path 59" d="M483.4,550.179a3.526,3.526,0,0,1-3.523-3.52V536.1a3.523,3.523,0,0,1,7.046,0v10.561A3.526,3.526,0,0,1,483.4,550.179Z" transform="translate(-415.762 -399.164)" fill="#faa731"/>
    <path id="Path_60" data-name="Path 60" d="M507.4,550.179a3.526,3.526,0,0,1-3.523-3.52V536.1a3.523,3.523,0,0,1,7.046,0v10.561A3.526,3.526,0,0,1,507.4,550.179Z" transform="translate(-430.368 -399.164)" fill="#faa731"/>
    <path id="Path_61" data-name="Path 61" d="M531.4,550.179a3.525,3.525,0,0,1-3.523-3.52V536.1a3.523,3.523,0,0,1,7.046,0v10.561A3.526,3.526,0,0,1,531.4,550.179Z" transform="translate(-444.974 -399.164)" fill="#faa731"/>
    <path id="Path_62" data-name="Path 62" d="M568.4,550.179a3.525,3.525,0,0,1-3.523-3.52V536.1a3.523,3.523,0,0,1,7.046,0v10.561A3.525,3.525,0,0,1,568.4,550.179Z" transform="translate(-467.492 -399.164)" fill="#faa731"/>
    <path id="Path_63" data-name="Path 63" d="M592.4,550.179a3.525,3.525,0,0,1-3.523-3.52V536.1a3.523,3.523,0,0,1,7.046,0v10.561A3.526,3.526,0,0,1,592.4,550.179Z" transform="translate(-482.098 -399.164)" fill="#faa731"/>
    <path id="Path_64" data-name="Path 64" d="M616.4,550.179a3.526,3.526,0,0,1-3.523-3.52V536.1a3.523,3.523,0,0,1,7.045,0v10.561A3.525,3.525,0,0,1,616.4,550.179Z" transform="translate(-496.703 -399.164)" fill="#faa731"/>
    <path id="Path_65" data-name="Path 65" d="M653.4,550.179a3.525,3.525,0,0,1-3.523-3.52V536.1a3.523,3.523,0,0,1,7.046,0v10.561A3.525,3.525,0,0,1,653.4,550.179Z" transform="translate(-519.221 -399.164)" fill="#faa731"/>
    <path id="Path_66" data-name="Path 66" d="M677.4,550.179a3.525,3.525,0,0,1-3.523-3.52V536.1a3.523,3.523,0,0,1,7.046,0v10.561a3.525,3.525,0,0,1-3.523,3.52Z" transform="translate(-533.827 -399.164)" fill="#faa731"/>
    <path id="Path_67" data-name="Path 67" d="M701.4,550.179a3.525,3.525,0,0,1-3.523-3.52V536.1a3.523,3.523,0,0,1,7.046,0v10.561a3.525,3.525,0,0,1-3.523,3.52Z" transform="translate(-548.433 -399.164)" fill="#faa731"/>
    <path id="Path_68" data-name="Path 68" d="M738.4,550.179a3.525,3.525,0,0,1-3.523-3.52V536.1a3.523,3.523,0,0,1,7.046,0v10.561A3.525,3.525,0,0,1,738.4,550.179Z" transform="translate(-570.951 -399.164)" fill="#faa731"/>
    <path id="Path_69" data-name="Path 69" d="M762.4,550.179a3.525,3.525,0,0,1-3.523-3.52V536.1a3.523,3.523,0,0,1,7.045,0v10.561A3.526,3.526,0,0,1,762.4,550.179Z" transform="translate(-585.556 -399.164)" fill="#faa731"/>
    <path id="Path_70" data-name="Path 70" d="M786.4,550.179a3.525,3.525,0,0,1-3.523-3.52V536.1a3.523,3.523,0,0,1,7.046,0v10.561A3.525,3.525,0,0,1,786.4,550.179Z" transform="translate(-600.162 -399.164)" fill="#faa731"/>
    <path id="Path_71" data-name="Path 71" d="M467.444,670.381H416.779a2.365,2.365,0,1,1,0-4.731h50.665a2.365,2.365,0,1,1,0,4.731Z" transform="translate(-375.918 -480.186)" fill="#e6e6e6"/>
    <path id="Path_72" data-name="Path 72" d="M476.456,644.381H458.279a2.365,2.365,0,1,1,0-4.731h18.178a2.365,2.365,0,1,1,0,4.731Z" transform="translate(-401.175 -464.356)" fill="#e6e6e6"/>
    <rect id="Rectangle_6" data-name="Rectangle 6" width="192.969" height="0.782" transform="translate(28.109 108.381)" fill="#faa631"/>
  </g>
</svg>
