<svg xmlns="http://www.w3.org/2000/svg" width="259.49" height="197.047" viewBox="0 0 259.49 197.047">
  <g id="Group_1" data-name="Group 1" transform="translate(-100.66 -83)">
    <path id="Path_1" data-name="Path 1" d="M741.016,274.341h-.057l-32.805,13.931-44.884,19.061a1.456,1.456,0,0,1-1.109.006l-46.307-19.106-33.611-13.868-.051-.023h-.057a2,2,0,0,0-2,1.989v86.394a2,2,0,0,0,2,1.989H741.016a2,2,0,0,0,2-1.989V276.33a2,2,0,0,0-2-1.989Z" transform="translate(-431.917 -132.894)" fill="#fff"/>
    <path id="Path_2" data-name="Path 2" d="M742.675,209.341a.286.286,0,0,1-.163-.051l-79.029-54.736a1.44,1.44,0,0,0-1.637,0l-78.46,54.733a.287.287,0,0,1-.4-.069.283.283,0,0,1,.07-.4l78.46-54.733a2.016,2.016,0,0,1,2.292,0l79.029,54.736a.284.284,0,0,1-.164.517Z" transform="translate(-433.433 -67.326)" fill="#3f3d56"/>
    <path id="Path_3" data-name="Path 3" d="M435.67,67.83l74.872-55.185,75.441,59.111-71.583,42.2-38.863-8.809Z" transform="translate(-281.235 76.126)" fill="#e6e6e6"/>
    <path id="Path_4" data-name="Path 4" d="M642.055,433.942H605.066a1.719,1.719,0,1,1-.005-3.437h36.994a1.719,1.719,0,1,1,.005,3.437Z" transform="translate(-444.472 -217.792)" fill="#e07334"/>
    <path id="Path_5" data-name="Path 5" d="M618.337,417.751H605.066a1.719,1.719,0,1,1-.005-3.437h13.276a1.719,1.719,0,1,1,.005,3.437Z" transform="translate(-444.472 -208.99)" fill="#da7034"/>
    <path id="Path_6" data-name="Path 6" d="M703.726,250.88a2.172,2.172,0,0,1-.82-.16L656.73,231.665V172.021a2,2,0,0,1,2-1.989h88.586a2,2,0,0,1,2,1.989v59.686l-.087.037L704.57,250.711A2.188,2.188,0,0,1,703.726,250.88Z" transform="translate(-473.365 -76.187)" fill="#fff"/>
    <path id="Path_7" data-name="Path 7" d="M703.557,250.852a2.318,2.318,0,0,1-.874-.17l-46.265-19.091V171.852a2.14,2.14,0,0,1,2.143-2.131h88.586a2.14,2.14,0,0,1,2.143,2.131v59.779l-44.832,19.04a2.328,2.328,0,0,1-.9.18ZM656.99,231.211,702.9,250.157a1.757,1.757,0,0,0,1.334-.008l44.484-18.893v-59.4a1.569,1.569,0,0,0-1.572-1.563H658.562a1.569,1.569,0,0,0-1.572,1.563Z" transform="translate(-473.196 -76.018)" fill="#3f3d56"/>
    <path id="Path_8" data-name="Path 8" d="M740.082,274.341h-.057l-32.805,13.931-44.884,19.061a1.455,1.455,0,0,1-1.109.006l-46.307-19.106-33.611-13.868-.051-.023H581.2a2,2,0,0,0-2,1.989v86.394a2,2,0,0,0,2,1.989H740.082a2,2,0,0,0,2-1.989V276.33A2,2,0,0,0,740.082,274.341Zm1.429,88.383a1.425,1.425,0,0,1-1.429,1.421H581.2a1.425,1.425,0,0,1-1.429-1.421V276.33a1.428,1.428,0,0,1,1.375-1.421l33.774,13.937,46.087,19.018a2.045,2.045,0,0,0,1.555-.009l44.658-18.967,32.92-13.979a1.429,1.429,0,0,1,1.372,1.421Z" transform="translate(-431.411 -132.894)" fill="#3f3d56"/>
    <path id="Path_9" data-name="Path 9" d="M703.716,213.47H672.282a2.274,2.274,0,1,1,0-4.547h31.434a2.274,2.274,0,1,1,0,4.547Z" transform="translate(-480.544 -97.33)" fill="#e27434"/>
    <path id="Path_10" data-name="Path 10" d="M687.427,192.3H672.282a2.274,2.274,0,1,1,0-4.547h15.145a2.274,2.274,0,1,1,0,4.547Z" transform="translate(-480.543 -85.819)" fill="#e47534"/>
    <path id="Path_11" data-name="Path 11" d="M749.539,263.289H701.531a2.274,2.274,0,1,1,0-4.547h48.008a2.274,2.274,0,1,1,0,4.547Z" transform="translate(-496.371 -124.414)" fill="#ccc"/>
    <path id="Path_12" data-name="Path 12" d="M749.539,286.33H701.531a2.274,2.274,0,1,1,0-4.547h48.008a2.274,2.274,0,1,1,0,4.547Z" transform="translate(-496.371 -136.94)" fill="#ccc"/>
    <ellipse id="Ellipse_2" data-name="Ellipse 2" cx="21.738" cy="21.618" rx="21.738" ry="21.618" transform="translate(286.047 120.652)" fill="#e47534"/>
    <path id="Path_13" data-name="Path 13" d="M757.667,128.155l-6.506-8.32,3.783-2.927,3.081,3.939,10.407-10.926,3.48,3.279Z" transform="translate(-451.954 23.241)" fill="#fff"/>
    <path id="Path_28" data-name="Path 28" d="M481.478,193.4a.921.921,0,0,0-.974.025.91.91,0,0,0-.4.883l.708,5.167a.59.59,0,0,1-.015.228.556.556,0,0,1-.109.2l-3.968,4.675a.888.888,0,0,0-.058,1.1l0,.006a.9.9,0,0,0,1.047.343l2.865-.967a.554.554,0,0,1,.554.124.529.529,0,0,1,.171.39l.112,10.153a.9.9,0,0,0,.4.743.924.924,0,0,0,.841.1l21.387-8.134a.91.91,0,0,0,.141-1.637l-.291-.172Zm-1.014.859a.547.547,0,0,1,.242-.53.553.553,0,0,1,.585-.015L503.7,206.932l.3.176a.547.547,0,0,1-.084.982l-21.387,8.134a.552.552,0,0,1-.5-.059.546.546,0,0,1-.24-.445l-.112-10.153a.87.87,0,0,0-.051-.295l21.774,2.488a.365.365,0,0,0,.22-.683.319.319,0,0,0-.057-.025l-22.375-7.428a.9.9,0,0,0-.007-.2l-.708-5.167Z" transform="translate(-375.837 -88.82)" fill="#f1f1f1"/>
    <path id="Path_29" data-name="Path 29" d="M481.478,193.4a.921.921,0,0,0-.974.025.91.91,0,0,0-.4.883l.708,5.167a.59.59,0,0,1-.015.228.556.556,0,0,1-.109.2l-3.968,4.675a.888.888,0,0,0-.058,1.1l0,.006a.9.9,0,0,0,1.047.343l2.865-.967a.554.554,0,0,1,.554.124.529.529,0,0,1,.171.39l.112,10.153a.9.9,0,0,0,.4.743.924.924,0,0,0,.841.1l21.387-8.134a.91.91,0,0,0,.141-1.637l-.291-.172Zm-1.014.859a.547.547,0,0,1,.242-.53.553.553,0,0,1,.585-.015L503.7,206.932l.3.176a.547.547,0,0,1-.084.982l-21.387,8.134a.552.552,0,0,1-.5-.059.546.546,0,0,1-.24-.445l-.112-10.153a.87.87,0,0,0-.051-.295.887.887,0,0,0-.235-.357c-.015-.014-.03-.028-.046-.041h0a.918.918,0,0,0-.875-.16l-2.867.968a.535.535,0,0,1-.628-.208l0,0a.527.527,0,0,1,.035-.66l3.968-4.675a.863.863,0,0,0,.11-.16h0a.87.87,0,0,0,.07-.172.844.844,0,0,0,.033-.177.9.9,0,0,0-.007-.2l-.708-5.167Z" transform="translate(-375.837 -88.82)" fill="#e5e5e5"/>
    <path id="Path_30" data-name="Path 30" d="M486.465,207.16l22.375,7.428a.327.327,0,0,1,.057.025.365.365,0,0,1-.22.683L486.9,212.807l-.384-.044.043-.362.06.006h0l22.1,2.523-22.356-7.423h0l-.1-.033.116-.346Z" transform="translate(-381.122 -96.356)" fill="#e5e5e5"/>
    <path id="Path_31" data-name="Path 31" d="M1003.822,146.4l-22.415,13.226-.291.172a.91.91,0,0,0,.141,1.637l21.387,8.134a.924.924,0,0,0,.841-.1.9.9,0,0,0,.4-.743L1004,158.57a.53.53,0,0,1,.171-.39.554.554,0,0,1,.554-.124l2.865.967a.9.9,0,0,0,1.047-.343l0-.006a.888.888,0,0,0-.058-1.1l-3.968-4.675a.557.557,0,0,1-.109-.2.592.592,0,0,1-.016-.228l.708-5.167a.91.91,0,0,0-.4-.883.922.922,0,0,0-.974-.025Zm1.014.859-.708,5.167a.9.9,0,0,0-.007.2l-22.375,7.428a.319.319,0,0,0-.057.025.365.365,0,0,0,.22.683l21.774-2.488a.867.867,0,0,0-.051.295l-.112,10.153a.546.546,0,0,1-.24.445.553.553,0,0,1-.5.059l-21.387-8.134a.547.547,0,0,1-.084-.982l.3-.176,22.408-13.222a.553.553,0,0,1,.585.015.547.547,0,0,1,.242.53Z" transform="translate(-648.654 -63.268)" fill="#f1f1f1"/>
    <path id="Path_32" data-name="Path 32" d="M1003.822,146.4l-22.415,13.226-.291.172a.91.91,0,0,0,.141,1.637l21.387,8.134a.924.924,0,0,0,.841-.1.9.9,0,0,0,.4-.743L1004,158.57a.53.53,0,0,1,.171-.39.554.554,0,0,1,.554-.124l2.865.967a.9.9,0,0,0,1.047-.343l0-.006a.888.888,0,0,0-.058-1.1l-3.968-4.675a.557.557,0,0,1-.109-.2.592.592,0,0,1-.016-.228l.708-5.167a.91.91,0,0,0-.4-.883.922.922,0,0,0-.974-.025Zm1.014.859-.708,5.167a.9.9,0,0,0-.007.2.844.844,0,0,0,.032.178.875.875,0,0,0,.07.172h0a.866.866,0,0,0,.11.16l3.968,4.675a.527.527,0,0,1,.035.66l0,0a.535.535,0,0,1-.628.208l-2.867-.968a.918.918,0,0,0-.875.16h0c-.016.013-.032.027-.046.041a.885.885,0,0,0-.235.357.87.87,0,0,0-.051.295l-.112,10.153a.546.546,0,0,1-.24.445.552.552,0,0,1-.5.059l-21.387-8.134a.547.547,0,0,1-.084-.982l.3-.176,22.408-13.222a.554.554,0,0,1,.585.015.547.547,0,0,1,.242.53Z" transform="translate(-648.654 -63.268)" fill="#e5e5e5"/>
    <path id="Path_33" data-name="Path 33" d="M1005.183,160.131l.116.346-.1.033h0l-22.356,7.423,22.1-2.523h0l.06-.006.043.362-.385.044L982.886,168.3a.365.365,0,0,1-.22-.683.313.313,0,0,1,.057-.025l22.375-7.428Z" transform="translate(-649.633 -70.805)" fill="#e5e5e5"/>
    <path id="Path_34" data-name="Path 34" d="M612.553,537.163a.91.91,0,0,0,.037,1.642l4.77,2.166a.6.6,0,0,1,.185.135.558.558,0,0,1,.111.2l1.853,5.834a.9.9,0,0,0,.9.638h.007a.894.894,0,0,0,.852-.7l.709-2.926a.55.55,0,0,1,.4-.4.535.535,0,0,1,.423.065l8.689,5.332a.917.917,0,0,0,1.378-.595l4.516-22.325a.909.909,0,0,0-.344-.907.921.921,0,0,0-.972-.085l-.3.153Zm.188,1.311a.547.547,0,0,1-.021-.986l23.212-11.769.309-.157a.553.553,0,0,1,.582.052.547.547,0,0,1,.208.543l-4.516,22.324a.551.551,0,0,1-.827.357L623,543.507a.881.881,0,0,0-.278-.114l13.751-16.973a.363.363,0,0,0,0-.466.368.368,0,0,0-.461-.084.32.32,0,0,0-.052.035l-18.271,14.838a.911.911,0,0,0-.175-.1Z" transform="translate(-449.19 -269.238)" fill="#f1f1f1"/>
    <path id="Path_35" data-name="Path 35" d="M612.553,537.163a.91.91,0,0,0,.037,1.642l4.77,2.166a.6.6,0,0,1,.185.135.558.558,0,0,1,.111.2l1.853,5.834a.9.9,0,0,0,.9.638h.007a.894.894,0,0,0,.852-.7l.709-2.926a.55.55,0,0,1,.4-.4.535.535,0,0,1,.423.065l8.689,5.332a.917.917,0,0,0,1.378-.595l4.516-22.325a.909.909,0,0,0-.344-.907.921.921,0,0,0-.972-.085l-.3.153Zm.188,1.311a.547.547,0,0,1-.021-.986l23.212-11.769.309-.157a.553.553,0,0,1,.582.052.547.547,0,0,1,.208.543l-4.516,22.324a.551.551,0,0,1-.827.357L623,543.507a.881.881,0,0,0-.278-.114.9.9,0,0,0-.429.007c-.02,0-.04.011-.06.017h0a.911.911,0,0,0-.6.65l-.709,2.927a.533.533,0,0,1-.513.417h0a.532.532,0,0,1-.542-.383l-1.852-5.834a.856.856,0,0,0-.077-.177v0a.863.863,0,0,0-.109-.151.851.851,0,0,0-.133-.122.913.913,0,0,0-.175-.1l-4.77-2.166Z" transform="translate(-449.19 -269.238)" fill="#e5e5e5"/>
    <path id="Path_36" data-name="Path 36" d="M624.247,541.559l18.271-14.838a.32.32,0,0,1,.052-.035.368.368,0,0,1,.461.084.363.363,0,0,1,0,.466l-13.751,16.973-.242.3-.285-.229.037-.047h0l13.953-17.226L624.49,541.832v0l-.08.063-.232-.282Z" transform="translate(-455.751 -270.055)" fill="#e5e5e5"/>
  </g>
</svg>
