<svg xmlns="http://www.w3.org/2000/svg" width="293.666" height="328" viewBox="0 0 293.666 328">
  <g id="Group_2" data-name="Group 2" transform="translate(-0.001 -0.001)">
    <path id="Path_37" data-name="Path 37" d="M425.717,354.368l-70.759-15.217-.92-.2a2.54,2.54,0,0,0-2.822,3.605l28.094,56.878a2.547,2.547,0,0,0,4.126.623l19.514-20.512a1.483,1.483,0,0,1,1.089-.474,1.533,1.533,0,0,1,1.364.79l4,7.37a2.489,2.489,0,0,0,2.784,1.272l.02,0a2.485,2.485,0,0,0,1.973-2.358l.8-17.013a1.547,1.547,0,0,1,.156-.611,1.652,1.652,0,0,1,.4-.494l11.258-9.213a2.537,2.537,0,0,0-1.075-4.445Zm.432,3.662-11.257,9.213a2.506,2.506,0,0,0-.4.4L354.83,340.665a.889.889,0,0,0-.164-.057,1.016,1.016,0,0,0-.85,1.809l49.058,35.926a2.44,2.44,0,0,0-.664.505L382.7,399.36a1.53,1.53,0,0,1-2.476-.374l-28.094-56.878a1.527,1.527,0,0,1,1.694-2.161l.941.2L425.5,355.361a1.524,1.524,0,0,1,.65,2.668Z" transform="translate(-350.951 -231.266)" fill="#d76f33"/>
    <path id="Path_38" data-name="Path 38" d="M513.928,483.536c-6.347-1.709-14.071-8.817-12.418-18.587.82-4.845,3.968-7.982,7.232-10.01a30.467,30.467,0,0,1,14.611-4.13c5.715-.308,11.424.469,17.1,1.29,5.6.811,11.2,1.537,16.826,1.98a217.547,217.547,0,0,0,65.671-4.861q7.965-1.832,15.835-4.3a109,109,0,0,0,14.545-5.42c6.237-2.985,16.381-8.795,15.554-19.554-.439-5.7-3.808-10.261-7.207-13.435-4.11-3.838-8.866-6.363-13.523-8.816-21.666-11.407-43.374-22.678-65.06-34.016-5.061-2.646-10.157-5.221-15.069-8.322a49.838,49.838,0,0,1-12.878-10.939c-3.233-4.073-6.121-9.54-6.019-15.652a19.635,19.635,0,0,1,5.232-12.585c7.016-7.959,16.94-11.186,25.91-12.876,11.144-2.1,22.449-2.089,33.6-4.117,9-1.637,18.625-4.8,25.948-12.205a23.12,23.12,0,0,0,6.326-11.018,21.592,21.592,0,0,0-1.3-13.074,33.725,33.725,0,0,0-8.475-11.567,50.861,50.861,0,0,0-12.854-8.561c-9.89-4.7-20.29-7.145-30.421-10.75a66.514,66.514,0,0,1-14.6-6.745c-3.908-2.573-8.166-6.042-10.341-11.2-4.487-10.642,6.217-16.985,12.282-19.387a79.15,79.15,0,0,1,12.693-3.623c.915-.2.526-2.016-.384-1.821a76.118,76.118,0,0,0-13.329,3.88c-3.657,1.515-7.431,3.506-10.3,6.932a14.4,14.4,0,0,0-3.27,11.281c.761,5.106,4.069,9.041,7.175,11.89a45.864,45.864,0,0,0,13.541,8.236c5,2.113,10.109,3.76,15.215,5.375,10.2,3.228,20.863,6.1,30.073,12.972,6.443,4.8,15.2,13.812,13.052,24.978a21.489,21.489,0,0,1-6.958,11.682,40.535,40.535,0,0,1-12.461,7.553c-20.41,8.189-42.872,2.333-62.756,13.455-6.761,3.781-14.972,10.666-15.038,21.5a26.411,26.411,0,0,0,5.026,14.868,44.993,44.993,0,0,0,12.1,11.519,140.987,140.987,0,0,0,14.453,8.342q8.159,4.272,16.321,8.533L628.6,389.5l16.407,8.578c5.008,2.618,10.144,5.129,14.7,8.972,3.728,3.147,8.132,8.309,7.752,14.719-.3,5.091-3.694,8.764-6.794,11.22a47.969,47.969,0,0,1-13.009,6.947c-5.175,1.972-10.434,3.607-15.7,5.078a212.591,212.591,0,0,1-32.947,6.429,217.309,217.309,0,0,1-33.47,1.244q-8.467-.34-16.909-1.35c-5.8-.7-11.576-1.77-17.392-2.246a46.09,46.09,0,0,0-15.752,1.053c-4.326,1.156-8.9,3.215-12.179,7.235a15.971,15.971,0,0,0-3.408,10.809,19.374,19.374,0,0,0,3.992,10.712,18.064,18.064,0,0,0,9.656,6.462c.907.244,1.294-1.576.384-1.821Z" transform="translate(-383.913 -157.534)" fill="#e6e6e6"/>
    <rect id="Rectangle_1" data-name="Rectangle 1" width="164.912" height="1.137" transform="translate(128.756 326.864)" fill="#f99933"/>
    <ellipse id="Ellipse_7" data-name="Ellipse 7" cx="10.773" cy="10.74" rx="10.773" ry="10.74" transform="translate(269.682 251.828)" fill="#e6e6e6"/>
    <ellipse id="Ellipse_8" data-name="Ellipse 8" cx="10.773" cy="10.74" rx="10.773" ry="10.74" transform="translate(250.027 100.451)" fill="#e6e6e6"/>
    <path id="Path_39" data-name="Path 39" d="M704.593,127.217l-29.914,12.964a5.419,5.419,0,0,0-2.818,7.131l9.289,21.3a5.449,5.449,0,0,0,7.153,2.81l29.914-12.964a5.419,5.419,0,0,0,2.818-7.131l-9.289-21.3a5.449,5.449,0,0,0-7.153-2.81Zm1.238,2.84a2.324,2.324,0,0,1,.559-.161L696.277,148.92l-20.772-5.667a2.331,2.331,0,0,1,.413-.231Zm11.146,25.562-29.914,12.964a2.335,2.335,0,0,1-3.066-1.2l-9.205-21.11,21.864,5.965a1.555,1.555,0,0,0,1.782-.768l10.586-19.911,9.161,21.008A2.323,2.323,0,0,1,716.978,155.619Z" transform="translate(-476.113 -126.767)" fill="#e6e6e6"/>
    <ellipse id="Ellipse_9" data-name="Ellipse 9" cx="27.238" cy="27.154" rx="27.238" ry="27.154" transform="translate(162.83 130.913)" fill="#f68734"/>
    <path id="Path_40" data-name="Path 40" d="M651.811,704.647H644.3a3.307,3.307,0,0,1-3.308-3.3V638.935a3.307,3.307,0,0,1,3.308-3.3h7.512a3.307,3.307,0,0,1,3.308,3.3v62.414a3.307,3.307,0,0,1-3.308,3.3Z" transform="translate(-468.609 -377.449)" fill="#fff"/>
    <path id="Path_41" data-name="Path 41" d="M681,704.647h-7.512a3.307,3.307,0,0,1-3.308-3.3V638.935a3.307,3.307,0,0,1,3.308-3.3H681a3.307,3.307,0,0,1,3.308,3.3v62.414a3.307,3.307,0,0,1-3.308,3.3Z" transform="translate(-480.452 -377.449)" fill="#fff"/>
    <path id="Path_42" data-name="Path 42" d="M721.093,565.93a3.34,3.34,0,0,1-.974-.146,3.286,3.286,0,0,1-1.952-1.607l-29.348-55.132a3.293,3.293,0,0,1,1.371-4.459l6.635-3.51a3.312,3.312,0,0,1,4.473,1.367l29.347,55.132a3.292,3.292,0,0,1-1.371,4.459l-6.635,3.51A3.3,3.3,0,0,1,721.093,565.93Z" transform="translate(-483.964 -310.97)" fill="#f79133"/>
    <path id="Path_43" data-name="Path 43" d="M572.87,494.5a3.3,3.3,0,0,1-1.162-.212h0L513.14,472.23a3.292,3.292,0,0,1-1.921-4.25l2.65-7.006a3.321,3.321,0,0,1,4.268-1.917L576.7,481.11a3.3,3.3,0,0,1,1.927,4.249l-2.655,7.007A3.323,3.323,0,0,1,572.87,494.5Z" transform="translate(-411.924 -290.356)" fill="#f89433"/>
    <rect id="Rectangle_2" data-name="Rectangle 2" width="40.238" height="78.377" rx="6" transform="translate(169.096 189.939)" fill="#fff"/>
    <path id="Path_44" data-name="Path 44" d="M673.151,384.765c1.6,3.5,3.132,7.733,1.41,11.478a5.824,5.824,0,0,1-8.672,2.853c-3.464-1.8-5.7-5.137-8.789-7.424a10.467,10.467,0,0,0-4.837-2.078,19.452,19.452,0,0,0-6.037.583c-2.114.392-4.3.6-6.255-.469a9.164,9.164,0,0,1-3.838-4.371c-.4-.892-1.719-.119-1.318.768a9.441,9.441,0,0,0,9.238,5.9c2.187-.154,4.3-.858,6.491-.959a8.692,8.692,0,0,1,5.549,1.768c3.4,2.413,5.7,6.119,9.6,7.872a7.809,7.809,0,0,0,5.881.459,7.7,7.7,0,0,0,3.938-3.419c2.557-4.388.915-9.461-1.037-13.73-.407-.89-1.723-.117-1.318.768Z" transform="translate(-462.869 -253.29)" fill="#2f2e41"/>
    <path id="Path_45" data-name="Path 45" d="M669.823,439.4c-1.682-.047-3.777-.106-5.39-1.28a4.123,4.123,0,0,1-1.629-3.081,2.771,2.771,0,0,1,.947-2.28,3.6,3.6,0,0,1,3.4-.488l-1.374-10.009,1.009-.138,1.615,11.766-.842-.385a3.09,3.09,0,0,0-3.15.028,1.78,1.78,0,0,0-.586,1.469,3.116,3.116,0,0,0,1.212,2.3c1.255.914,2.924,1.033,4.818,1.085Z" transform="translate(-478.22 -272.269)" fill="#2f2e41"/>
    <rect id="Rectangle_3" data-name="Rectangle 3" width="5.482" height="1.015" transform="translate(175.71 150.86)" fill="#2f2e41"/>
    <rect id="Rectangle_4" data-name="Rectangle 4" width="5.482" height="1.015" transform="translate(195.816 150.86)" fill="#2f2e41"/>
    <path id="Path_46" data-name="Path 46" d="M605.144,504.628l-24.069-7.317a3.043,3.043,0,0,1-2.069-3.661l2.81-11.038a3.056,3.056,0,0,1,4.271-2l23.873,11.313a3.047,3.047,0,0,1,1.779,3.922l-2.655,7.007A3.062,3.062,0,0,1,605.144,504.628Z" transform="translate(-441.757 -300.935)" fill="#fff"/>
    <path id="Path_47" data-name="Path 47" d="M689.7,508.174l10.323,22.878a3.057,3.057,0,0,0,3.9,1.584l10.628-4.174A3.04,3.04,0,0,0,716,523.986L701.73,501.806a3.064,3.064,0,0,0-4.128-1.263l-6.637,3.511a3.045,3.045,0,0,0-1.267,4.12Z" transform="translate(-486.562 -310.724)" fill="#fff"/>
    <path id="Path_48" data-name="Path 48" d="M425.717,354.368l-70.759-15.217-.92-.2a2.54,2.54,0,0,0-2.822,3.605l28.094,56.878a2.547,2.547,0,0,0,4.126.623l19.514-20.512a1.483,1.483,0,0,1,1.089-.474,1.533,1.533,0,0,1,1.364.79l4,7.37a2.489,2.489,0,0,0,2.784,1.272l.02,0a2.485,2.485,0,0,0,1.973-2.358l.8-17.013a1.547,1.547,0,0,1,.156-.611,1.652,1.652,0,0,1,.4-.494l11.258-9.213a2.537,2.537,0,0,0-1.075-4.445Zm.432,3.662-11.257,9.213a2.506,2.506,0,0,0-.4.4,2.355,2.355,0,0,0-.271.424,2.428,2.428,0,0,0-.185.482v0a2.394,2.394,0,0,0-.08.532l-.8,17.013a1.475,1.475,0,0,1-1.182,1.414l-.01,0a1.483,1.483,0,0,1-1.675-.758l-4-7.375a2.54,2.54,0,0,0-2.086-1.322h0c-.058,0-.116-.006-.173,0a2.482,2.482,0,0,0-1.156.286,2.44,2.44,0,0,0-.664.505L382.7,399.36a1.53,1.53,0,0,1-2.476-.374l-28.094-56.878a1.527,1.527,0,0,1,1.694-2.161l.941.2L425.5,355.361a1.524,1.524,0,0,1,.65,2.668Z" transform="translate(-350.951 -231.266)" fill="#3f3d56"/>
    <path id="Path_49" data-name="Path 49" d="M417.076,369.373l-.42.924-.26-.114v0l-59.618-26.95,49.782,36.462h0l.132.1-.6.818-.866-.635-49.058-35.926a1.016,1.016,0,0,1,.85-1.809.89.89,0,0,1,.164.057l59.665,26.976Z" transform="translate(-353.305 -232.898)" fill="#3f3d56"/>
  </g>
</svg>
